HIERARCHY
ROOT body_world
{
	OFFSET 0.00000 0.00000 0.00000
	CHANNELS 6 Xposition Yposition Zposition Zrotation Xrotation Yrotation
	JOINT b_root
	{
		OFFSET 0.00000 91.50000 0.00000
		CHANNELS 6 Xposition Yposition Zposition Zrotation Xrotation Yrotation
		JOINT b_spine0
		{
			OFFSET 0.00000 2.52216 -2.92039
			CHANNELS 6 Xposition Yposition Zposition Zrotation Xrotation Yrotation
			JOINT b_spine1
			{
				OFFSET 0.00000 10.88420 2.18712
				CHANNELS 6 Xposition Yposition Zposition Zrotation Xrotation Yrotation
				JOINT b_spine2
				{
					OFFSET 0.00000 10.37060 -4.27670
					CHANNELS 6 Xposition Yposition Zposition Zrotation Xrotation Yrotation
					JOINT b_spine3
					{
						OFFSET 0.00000 18.40230 -1.77629
						CHANNELS 6 Xposition Yposition Zposition Zrotation Xrotation Yrotation
						JOINT b_neck0
						{
							OFFSET 0.00000 12.77480 3.30221
							CHANNELS 6 Xposition Yposition Zposition Zrotation Xrotation Yrotation
							JOINT b_head
							{
								OFFSET 0.00000 6.34510 3.18585
								CHANNELS 6 Xposition Yposition Zposition Zrotation Xrotation Yrotation
								JOINT b_head_null
								{
									OFFSET 0.00000 19.88100 4.10307
									CHANNELS 6 Xposition Yposition Zposition Zrotation Xrotation Yrotation
									End Site
									{
										OFFSET 0.00000 0.00000 0.00000
									}
								}
								JOINT b_l_eye
								{
									OFFSET 3.40000 7.00765 8.59377
									CHANNELS 6 Xposition Yposition Zposition Zrotation Xrotation Yrotation
									End Site
									{
										OFFSET 0.02382 -0.23927 1.68141
									}
								}
								JOINT b_r_eye
								{
									OFFSET -3.30000 6.98743 8.69171
									CHANNELS 6 Xposition Yposition Zposition Zrotation Xrotation Yrotation
									End Site
									{
										OFFSET 0.02085 -0.23926 1.68137
									}
								}
								JOINT b_jaw
								{
									OFFSET 0.00000 5.04600 2.26669
									CHANNELS 6 Xposition Yposition Zposition Zrotation Xrotation Yrotation
									JOINT b_jaw_null
									{
										OFFSET 0.00000 -8.86421 6.07830
										CHANNELS 6 Xposition Yposition Zposition Zrotation Xrotation Yrotation
										End Site
										{
											OFFSET 0.00000 0.00000 0.00000
										}
									}
									JOINT b_teeth
									{
										OFFSET 0.10000 -6.13996 2.92418
										CHANNELS 6 Xposition Yposition Zposition Zrotation Xrotation Yrotation
										End Site
										{
											OFFSET 0.00000 0.00000 0.00000
										}
									}
									JOINT b_tongue0
									{
										OFFSET 0.10000 -6.13996 2.92418
										CHANNELS 6 Xposition Yposition Zposition Zrotation Xrotation Yrotation
										JOINT b_tongue1
										{
											OFFSET 0.00000 -0.12728 -1.74178
											CHANNELS 6 Xposition Yposition Zposition Zrotation Xrotation Yrotation
											JOINT b_tongue2
											{
												OFFSET 0.01033 0.78454 2.48080
												CHANNELS 6 Xposition Yposition Zposition Zrotation Xrotation Yrotation
												JOINT b_tongue3
												{
													OFFSET 0.02113 -0.48229 2.14871
													CHANNELS 6 Xposition Yposition Zposition Zrotation Xrotation Yrotation
													JOINT b_tongue4
													{
														OFFSET 0.00143 -0.17828 0.47772
														CHANNELS 6 Xposition Yposition Zposition Zrotation Xrotation Yrotation
														JOINT b_l_tongue4_1
														{
															OFFSET 0.20148 -0.09575 -0.01540
															CHANNELS 6 Xposition Yposition Zposition Zrotation Xrotation Yrotation
															End Site
															{
																OFFSET 0.22487 -0.07658 -0.01600
															}
														}
														JOINT b_r_tongue4_1
														{
															OFFSET -0.19848 -0.10168 -0.01642
															CHANNELS 6 Xposition Yposition Zposition Zrotation Xrotation Yrotation
															End Site
															{
																OFFSET -0.22507 -0.08324 -0.01714
															}
														}
													}
													JOINT b_l_tongue3_1
													{
														OFFSET 0.20148 -0.09575 -0.01540
														CHANNELS 6 Xposition Yposition Zposition Zrotation Xrotation Yrotation
														End Site
														{
															OFFSET 0.43655 -0.07345 -0.01547
														}
													}
													JOINT b_r_tongue3_1
													{
														OFFSET -0.19848 -0.10168 -0.01642
														CHANNELS 6 Xposition Yposition Zposition Zrotation Xrotation Yrotation
														End Site
														{
															OFFSET -0.43675 -0.08638 -0.01768
														}
													}
												}
												JOINT b_l_tongue2_1
												{
													OFFSET 0.20163 -0.09487 -0.01862
													CHANNELS 6 Xposition Yposition Zposition Zrotation Xrotation Yrotation
													End Site
													{
														OFFSET 0.64962 -0.06809 -0.02138
													}
												}
												JOINT b_r_tongue2_1
												{
													OFFSET -0.19830 -0.10203 -0.01630
													CHANNELS 6 Xposition Yposition Zposition Zrotation Xrotation Yrotation
													End Site
													{
														OFFSET -0.64984 -0.09177 -0.01160
													}
												}
											}
											JOINT b_r_tongue1_1
											{
												OFFSET -0.19765 -0.09820 0.03591
												CHANNELS 6 Xposition Yposition Zposition Zrotation Xrotation Yrotation
												End Site
												{
													OFFSET -0.75924 -0.09552 -0.00843
												}
											}
											JOINT b_l_tongue1_1
											{
												OFFSET 0.20224 -0.08999 0.03165
												CHANNELS 6 Xposition Yposition Zposition Zrotation Xrotation Yrotation
												End Site
												{
													OFFSET 0.75910 -0.06432 -0.02462
												}
											}
										}
									}
								}
							}
						}
						JOINT b_r_shoulder
						{
							OFFSET -2.80000 7.18393 9.08687
							CHANNELS 6 Xposition Yposition Zposition Zrotation Xrotation Yrotation
							JOINT p_r_scap
							{
								OFFSET -16.05540 -0.96660 -5.09514
								CHANNELS 6 Xposition Yposition Zposition Zrotation Xrotation Yrotation
								JOINT b_r_arm
								{
									OFFSET -0.37421 -4.11697 -0.50050
									CHANNELS 6 Xposition Yposition Zposition Zrotation Xrotation Yrotation
									JOINT b_r_arm_twist
									{
										OFFSET 0.00000 0.00000 0.00000
										CHANNELS 6 Xposition Yposition Zposition Zrotation Xrotation Yrotation
										JOINT b_r_forearm
										{
											OFFSET -25.58110 -0.71761 -0.67246
											CHANNELS 6 Xposition Yposition Zposition Zrotation Xrotation Yrotation
											JOINT b_r_wrist_twist
											{
												OFFSET -24.78170 -0.69519 -0.65144
												CHANNELS 6 Xposition Yposition Zposition Zrotation Xrotation Yrotation
												JOINT b_r_wrist
												{
													OFFSET -1.98009 -0.26602 1.88639
													CHANNELS 6 Xposition Yposition Zposition Zrotation Xrotation Yrotation
													JOINT b_r_index1
													{
														OFFSET -8.95160 -0.46243 2.31625
														CHANNELS 6 Xposition Yposition Zposition Zrotation Xrotation Yrotation
														JOINT b_r_index2
														{
															OFFSET -4.49994 -0.01610 0.01724
															CHANNELS 6 Xposition Yposition Zposition Zrotation Xrotation Yrotation
															JOINT b_r_index3
															{
																OFFSET -2.59996 -0.00930 0.00996
																CHANNELS 6 Xposition Yposition Zposition Zrotation Xrotation Yrotation
																End Site
																{
																	OFFSET -1.25012 -0.00447 0.00479
																}
															}
														}
													}
													JOINT b_r_ring1
													{
														OFFSET -7.97271 -0.33432 -2.08664
														CHANNELS 6 Xposition Yposition Zposition Zrotation Xrotation Yrotation
														JOINT b_r_ring2
														{
															OFFSET -4.49994 -0.01610 0.01724
															CHANNELS 6 Xposition Yposition Zposition Zrotation Xrotation Yrotation
															JOINT b_r_ring3
															{
																OFFSET -2.99996 -0.01073 0.01149
																CHANNELS 6 Xposition Yposition Zposition Zrotation Xrotation Yrotation
																End Site
																{
																	OFFSET -1.26270 -0.00452 0.00484
																}
															}
														}
													}
													JOINT b_r_middle1
													{
														OFFSET -8.72799 0.02962 0.03636
														CHANNELS 6 Xposition Yposition Zposition Zrotation Xrotation Yrotation
														JOINT b_r_middle2
														{
															OFFSET -5.09993 -0.01825 0.01953
															CHANNELS 6 Xposition Yposition Zposition Zrotation Xrotation Yrotation
															JOINT b_r_middle3
															{
																OFFSET -3.09996 -0.01109 0.01187
																CHANNELS 6 Xposition Yposition Zposition Zrotation Xrotation Yrotation
																End Site
																{
																	OFFSET -1.37856 -0.00493 0.00528
																}
															}
														}
													}
													JOINT b_r_pinky1
													{
														OFFSET -7.05086 -1.12271 -4.03050
														CHANNELS 6 Xposition Yposition Zposition Zrotation Xrotation Yrotation
														JOINT b_r_pinky2
														{
															OFFSET -3.39995 -0.01216 0.01302
															CHANNELS 6 Xposition Yposition Zposition Zrotation Xrotation Yrotation
															JOINT b_r_pinky3
															{
																OFFSET -2.09997 -0.00751 0.00804
																CHANNELS 6 Xposition Yposition Zposition Zrotation Xrotation Yrotation
																End Site
																{
																	OFFSET -1.30944 -0.00469 0.00502
																}
															}
														}
													}
													JOINT b_r_thumb0
													{
														OFFSET -1.02679 -0.35312 0.78804
														CHANNELS 6 Xposition Yposition Zposition Zrotation Xrotation Yrotation
														JOINT b_r_thumb1
														{
															OFFSET -1.04860 -2.13714 1.65622
															CHANNELS 6 Xposition Yposition Zposition Zrotation Xrotation Yrotation
															JOINT b_r_thumb2
															{
																OFFSET -4.19196 -0.71130 1.47361
																CHANNELS 6 Xposition Yposition Zposition Zrotation Xrotation Yrotation
																JOINT b_r_thumb3
																{
																	OFFSET -3.79307 -0.05136 0.22358
																	CHANNELS 6 Xposition Yposition Zposition Zrotation Xrotation Yrotation
																	End Site
																	{
																		OFFSET -1.92166 -0.02602 0.11327
																	}
																}
															}
														}
													}
												}
											}
										}
									}
								}
							}
						}
						JOINT b_l_shoulder
						{
							OFFSET 2.80000 7.18393 9.08687
							CHANNELS 6 Xposition Yposition Zposition Zrotation Xrotation Yrotation
							JOINT p_l_delt
							{
								OFFSET 14.83770 0.12736 -4.10440
								CHANNELS 6 Xposition Yposition Zposition Zrotation Xrotation Yrotation
								End Site
								{
									OFFSET 0.00000 0.00000 0.00000
								}
							}
							JOINT p_l_scap
							{
								OFFSET 16.05540 -0.98247 -5.09210
								CHANNELS 6 Xposition Yposition Zposition Zrotation Xrotation Yrotation
								JOINT b_l_arm
								{
									OFFSET 0.31067 -4.17648 -0.50051
									CHANNELS 6 Xposition Yposition Zposition Zrotation Xrotation Yrotation
									JOINT b_l_arm_twist
									{
										OFFSET 0.00000 0.00000 0.00000
										CHANNELS 6 Xposition Yposition Zposition Zrotation Xrotation Yrotation
										JOINT b_l_forearm
										{
											OFFSET 25.58390 -0.59335 -0.68858
											CHANNELS 6 Xposition Yposition Zposition Zrotation Xrotation Yrotation
											JOINT b_l_wrist_twist
											{
												OFFSET 24.78440 -0.57480 -0.66706
												CHANNELS 6 Xposition Yposition Zposition Zrotation Xrotation Yrotation
												JOINT b_l_wrist
												{
													OFFSET 2.06093 0.07483 1.81576
													CHANNELS 6 Xposition Yposition Zposition Zrotation Xrotation Yrotation
													JOINT b_l_thumb0
													{
														OFFSET 1.01479 -0.37734 0.79235
														CHANNELS 6 Xposition Yposition Zposition Zrotation Xrotation Yrotation
														JOINT b_l_thumb1
														{
															OFFSET 0.98657 -2.15795 1.66732
															CHANNELS 6 Xposition Yposition Zposition Zrotation Xrotation Yrotation
															JOINT b_l_thumb2
															{
																OFFSET 4.16734 -0.81714 1.48847
																CHANNELS 6 Xposition Yposition Zposition Zrotation Xrotation Yrotation
																JOINT b_l_thumb3
																{
																	OFFSET 3.78971 -0.15162 0.23480
																	CHANNELS 6 Xposition Yposition Zposition Zrotation Xrotation Yrotation
																	End Site
																	{
																		OFFSET 1.91996 -0.07681 0.11896
																	}
																}
															}
														}
													}
													JOINT b_l_index1
													{
														OFFSET 8.92954 -0.69203 2.34400
														CHANNELS 6 Xposition Yposition Zposition Zrotation Xrotation Yrotation
														JOINT b_l_index2
														{
															OFFSET 4.49784 -0.13601 0.03038
															CHANNELS 6 Xposition Yposition Zposition Zrotation Xrotation Yrotation
															JOINT b_l_index3
															{
																OFFSET 2.59875 -0.07859 0.01755
																CHANNELS 6 Xposition Yposition Zposition Zrotation Xrotation Yrotation
																End Site
																{
																	OFFSET 1.24954 -0.03779 0.00844
																}
															}
														}
													}
													JOINT b_l_middle1
													{
														OFFSET 8.72554 -0.20297 0.06163
														CHANNELS 6 Xposition Yposition Zposition Zrotation Xrotation Yrotation
														JOINT b_l_middle2
														{
															OFFSET 5.09755 -0.15415 0.03443
															CHANNELS 6 Xposition Yposition Zposition Zrotation Xrotation Yrotation
															JOINT b_l_middle3
															{
																OFFSET 3.09851 -0.09370 0.02093
																CHANNELS 6 Xposition Yposition Zposition Zrotation Xrotation Yrotation
																End Site
																{
																	OFFSET 1.37792 -0.04167 0.00931
																}
															}
														}
													}
													JOINT b_l_ring1
													{
														OFFSET 7.96678 -0.55481 -2.06217
														CHANNELS 6 Xposition Yposition Zposition Zrotation Xrotation Yrotation
														JOINT b_l_ring2
														{
															OFFSET 4.49784 -0.13601 0.03038
															CHANNELS 6 Xposition Yposition Zposition Zrotation Xrotation Yrotation
															JOINT b_l_ring3
															{
																OFFSET 2.99856 -0.09068 0.02025
																CHANNELS 6 Xposition Yposition Zposition Zrotation Xrotation Yrotation
																End Site
																{
																	OFFSET 1.26211 -0.03817 0.00853
																}
															}
														}
													}
													JOINT b_l_pinky1
													{
														OFFSET 7.02968 -1.32581 -4.00572
														CHANNELS 6 Xposition Yposition Zposition Zrotation Xrotation Yrotation
														JOINT b_l_pinky2
														{
															OFFSET 3.39837 -0.10277 0.02296
															CHANNELS 6 Xposition Yposition Zposition Zrotation Xrotation Yrotation
															JOINT b_l_pinky3
															{
																OFFSET 2.09899 -0.06347 0.01418
																CHANNELS 6 Xposition Yposition Zposition Zrotation Xrotation Yrotation
																End Site
																{
																	OFFSET 1.30883 -0.03958 0.00884
																}
															}
														}
													}
												}
											}
										}
									}
								}
							}
						}
					}
					JOINT p_navel
					{
						OFFSET 0.00000 -11.87180 1.81975
						CHANNELS 6 Xposition Yposition Zposition Zrotation Xrotation Yrotation
						End Site
						{
							OFFSET 0.00000 0.00000 0.00000
						}
					}
				}
			}
		}
		JOINT b_r_upleg
		{
			OFFSET -8.70000 -7.18117 -1.31560
			CHANNELS 6 Xposition Yposition Zposition Zrotation Xrotation Yrotation
			JOINT b_r_leg
			{
				OFFSET 0.00000 -37.29980 0.16253
				CHANNELS 6 Xposition Yposition Zposition Zrotation Xrotation Yrotation
				JOINT b_r_foot_twist
				{
					OFFSET 0.00000 -39.87130 -3.20568
					CHANNELS 6 Xposition Yposition Zposition Zrotation Xrotation Yrotation
					JOINT b_r_foot
					{
						OFFSET 0.00000 0.00000 0.00000
						CHANNELS 6 Xposition Yposition Zposition Zrotation Xrotation Yrotation
						End Site
						{
							OFFSET 0.09399 -6.47053 16.93280
						}
					}
				}
			}
		}
		JOINT b_l_upleg
		{
			OFFSET 8.70000 -7.18117 -1.31560
			CHANNELS 6 Xposition Yposition Zposition Zrotation Xrotation Yrotation
			JOINT b_l_leg
			{
				OFFSET 0.00000 -37.19910 0.26182
				CHANNELS 6 Xposition Yposition Zposition Zrotation Xrotation Yrotation
				JOINT b_l_foot_twist
				{
					OFFSET 0.00000 -39.87130 -3.20568
					CHANNELS 6 Xposition Yposition Zposition Zrotation Xrotation Yrotation
					JOINT b_l_foot
					{
						OFFSET 0.00000 0.00000 0.00000
						CHANNELS 6 Xposition Yposition Zposition Zrotation Xrotation Yrotation
						End Site
						{
							OFFSET -0.03062 -6.08018 15.88790
						}
					}
				}
			}
		}
	}
}
MOTION
Frames: 3
Frame Time: 0.03333
2.29 -0.00 -16.78 0.00 0.00 0.00 0.00 87.09 0.00 -2.80 -1.82 11.58 0.00 2.52 -2.92 1.87 13.82 -1.37 0.00 10.88 2.19 1.78 13.82 -1.50 0.00 10.37 -4.28 2.36 2.96 -1.37 0.00 18.40 -1.78 2.36 2.96 -1.37 0.00 12.77 3.30 2.50 -15.62 -1.62 0.00 6.35 3.19 -3.29 -39.99 -5.17 0.00 19.88 4.10 -0.00 0.00 -0.00 3.40 7.01 8.59 0.00 0.01 -0.00 -3.30 6.99 8.69 0.00 -0.00 0.00 0.00 5.05 2.27 -0.00 -0.00 0.00 0.00 -8.86 6.08 -0.01 0.00 -0.00 0.10 -6.14 2.92 0.00 0.00 -0.00 0.10 -6.14 2.92 -0.00 0.00 -0.00 0.00 -0.13 -1.74 0.00 -0.00 -0.01 0.01 0.78 2.48 0.00 -0.00 -0.06 0.02 -0.48 2.15 -0.00 0.00 -0.00 0.00 -0.18 0.48 -0.00 0.00 0.00 0.20 -0.10 -0.02 -0.00 0.00 0.00 -0.20 -0.10 -0.02 0.00 -0.00 0.00 0.20 -0.10 -0.02 -0.00 -0.00 -0.00 -0.20 -0.10 -0.02 0.01 0.00 -0.00 0.20 -0.09 -0.02 0.00 0.00 -0.00 -0.20 -0.10 -0.02 0.00 -0.00 0.00 -0.20 -0.10 0.04 -0.00 0.00 0.00 0.20 -0.09 0.03 0.00 -0.00 0.00 -2.80 7.18 9.09 8.81 -0.47 -2.99 -16.06 -0.97 -5.10 0.00 0.00 -0.00 -0.37 -4.12 -0.50 55.49 -20.36 -5.41 0.00 0.00 0.00 0.40 17.69 0.45 -25.58 -0.72 -0.67 4.71 -21.08 62.32 -24.78 -0.70 -0.65 -3.91 -72.59 -10.65 -1.98 -0.27 1.89 0.33 72.69 7.51 -8.95 -0.46 2.32 -16.92 -7.19 0.83 -4.50 -0.02 0.02 1.71 -0.12 0.04 -2.60 -0.01 0.01 2.87 0.26 -0.02 -7.97 -0.33 -2.09 0.02 -16.99 -16.89 -4.50 -0.02 0.02 12.97 -1.20 0.12 -3.00 -0.01 0.01 10.92 -0.98 0.07 -8.73 0.03 0.04 -8.69 -0.26 -8.95 -5.10 -0.02 0.02 5.24 0.01 0.00 -3.10 -0.01 0.01 9.59 0.00 0.00 -7.05 -1.12 -4.03 5.03 -23.51 -23.54 -3.40 -0.01 0.01 17.68 -3.93 0.60 -2.10 -0.01 0.01 7.14 -1.59 0.11 -1.03 -0.35 0.79 0.00 0.00 0.00 -1.05 -2.14 1.66 -7.11 28.69 28.77 -4.19 -0.71 1.47 -3.50 -1.58 1.20 -3.79 -0.05 0.22 1.39 0.35 -0.85 2.80 7.18 9.09 -7.27 0.25 -2.01 14.84 0.13 -4.10 -0.00 -0.00 0.00 16.06 -0.98 -5.09 0.00 0.01 -0.00 0.31 -4.18 -0.50 -62.23 -5.41 -2.43 0.00 0.00 0.00 -0.67 29.58 -0.53 25.58 -0.59 -0.69 4.15 -27.04 -54.59 24.78 -0.57 -0.67 1.25 -51.09 6.49 2.06 0.07 1.82 7.39 50.77 -23.98 1.01 -0.38 0.79 -0.01 0.00 -0.00 0.99 -2.16 1.67 -2.47 39.22 -18.17 4.17 -0.82 1.49 -4.98 1.80 -0.21 3.79 -0.15 0.23 -3.01 0.73 1.82 8.93 -0.69 2.34 10.04 -3.89 -1.60 4.50 -0.14 0.03 -3.53 0.07 -0.08 2.60 -0.08 0.02 -1.28 0.12 0.02 8.73 -0.20 0.06 12.60 -0.13 8.47 5.10 -0.15 0.03 -1.56 0.02 0.01 3.10 -0.09 0.02 -6.52 0.00 0.00 7.97 -0.55 -2.06 8.07 -12.45 16.08 4.50 -0.14 0.03 -9.33 -0.87 -0.01 3.00 -0.09 0.02 -4.62 -0.42 -0.03 7.03 -1.33 -4.01 1.01 -19.68 24.41 3.40 -0.10 0.02 -14.25 -3.21 -0.39 2.10 -0.06 0.01 -7.89 -1.76 -0.13 0.00 -11.87 1.82 -0.00 -0.00 -0.00 -8.70 -7.18 -1.32 -4.58 -22.07 -6.87 0.00 -37.30 0.16 -0.01 26.78 -0.16 0.00 -39.87 -3.21 0.00 -0.01 -0.00 0.00 0.00 0.00 10.09 -5.93 -0.28 8.70 -7.18 -1.32 7.00 -9.81 -3.88 0.00 -37.20 0.26 0.03 32.73 0.26 0.00 -39.87 -3.21 -0.00 0.00 -0.00 0.00 0.00 0.00 -12.33 -20.85 -4.61
3.10 -0.00 -17.15 0.00 0.00 0.00 0.00 86.94 0.00 -2.74 -2.29 11.21 0.00 2.52 -2.92 1.81 13.79 -1.32 0.00 10.88 2.19 1.72 13.79 -1.45 0.00 10.37 -4.28 2.39 3.01 -1.33 0.00 18.40 -1.78 2.39 3.01 -1.33 0.00 12.77 3.30 2.60 -15.68 -2.01 0.00 6.35 3.19 -4.10 -39.37 -6.34 0.00 19.88 4.10 -0.00 0.00 -0.00 3.40 7.01 8.59 0.00 0.01 -0.00 -3.30 6.99 8.69 0.00 -0.00 0.00 0.00 5.05 2.27 -0.00 -0.00 0.00 0.00 -8.86 6.08 -0.01 0.00 -0.00 0.10 -6.14 2.92 0.00 0.00 -0.00 0.10 -6.14 2.92 -0.00 0.00 -0.00 0.00 -0.13 -1.74 0.00 -0.00 -0.01 0.01 0.78 2.48 0.00 -0.00 -0.06 0.02 -0.48 2.15 -0.00 0.00 -0.00 0.00 -0.18 0.48 -0.00 0.00 0.00 0.20 -0.10 -0.02 -0.00 0.00 0.00 -0.20 -0.10 -0.02 0.00 -0.00 0.00 0.20 -0.10 -0.02 -0.00 -0.00 -0.00 -0.20 -0.10 -0.02 0.01 0.00 -0.00 0.20 -0.09 -0.02 0.00 0.00 -0.00 -0.20 -0.10 -0.02 0.00 -0.00 0.00 -0.20 -0.10 0.04 -0.00 0.00 0.00 0.20 -0.09 0.03 0.00 -0.00 0.00 -2.80 7.18 9.09 8.97 -0.48 -3.02 -16.06 -0.97 -5.10 -0.00 0.00 -0.00 -0.37 -4.12 -0.50 55.99 -21.82 -6.15 0.00 0.00 0.00 0.40 17.69 0.45 -25.58 -0.72 -0.67 4.82 -21.25 62.25 -24.78 -0.70 -0.65 -3.91 -72.59 -10.65 -1.98 -0.27 1.89 0.29 72.67 7.88 -8.95 -0.46 2.32 -17.28 -7.18 1.00 -4.50 -0.02 0.02 1.70 -0.12 0.04 -2.60 -0.01 0.01 2.67 0.24 -0.02 -7.97 -0.33 -2.09 -0.83 -16.89 -17.37 -4.50 -0.02 0.02 12.90 -1.20 0.12 -3.00 -0.01 0.01 10.73 -0.97 0.07 -8.73 0.03 0.04 -9.69 -0.24 -9.15 -5.10 -0.02 0.02 4.84 0.01 0.00 -3.10 -0.01 0.01 9.22 0.00 0.00 -7.05 -1.12 -4.03 4.89 -23.53 -23.80 -3.40 -0.01 0.01 17.78 -3.96 0.60 -2.10 -0.01 0.01 7.09 -1.58 0.11 -1.03 -0.35 0.79 0.00 -0.00 0.00 -1.05 -2.14 1.66 -6.93 28.89 28.77 -4.19 -0.71 1.47 -3.25 -1.47 1.56 -3.79 -0.05 0.22 1.17 0.29 -0.71 2.80 7.18 9.09 -7.51 0.21 -1.61 14.84 0.13 -4.10 -0.00 0.00 0.00 16.06 -0.98 -5.09 0.00 0.01 -0.00 0.31 -4.18 -0.50 -63.13 -7.34 -0.89 0.00 0.00 0.00 -0.67 29.58 -0.53 25.58 -0.59 -0.69 3.28 -27.64 -53.27 24.78 -0.57 -0.67 1.25 -51.09 6.49 2.06 0.07 1.82 6.96 50.84 -23.94 1.01 -0.38 0.79 -0.01 -0.00 0.00 0.99 -2.16 1.67 -2.09 38.89 -18.74 4.17 -0.82 1.49 -4.56 1.72 -0.75 3.79 -0.15 0.23 -2.52 0.62 1.53 8.93 -0.69 2.34 10.23 -3.86 -1.62 4.50 -0.14 0.03 -3.80 0.08 -0.08 2.60 -0.08 0.02 -1.47 0.13 0.01 8.73 -0.20 0.06 12.79 -0.18 8.49 5.10 -0.15 0.03 -1.79 0.02 0.01 3.10 -0.09 0.02 -6.64 0.00 0.00 7.97 -0.55 -2.06 8.38 -12.43 16.27 4.50 -0.14 0.03 -9.29 -0.86 -0.02 3.00 -0.09 0.02 -4.69 -0.42 -0.03 7.03 -1.33 -4.01 1.38 -19.59 24.85 3.40 -0.10 0.02 -14.08 -3.17 -0.38 2.10 -0.06 0.01 -7.77 -1.73 -0.12 0.00 -11.87 1.82 -0.01 -0.00 -0.00 -8.70 -7.18 -1.32 -5.25 -22.42 -6.77 0.00 -37.30 0.16 -0.02 27.64 -0.17 0.00 -39.87 -3.21 0.00 -0.01 -0.00 0.00 0.00 0.00 10.70 -5.92 -0.07 8.70 -7.18 -1.32 6.47 -9.53 -4.22 0.00 -37.20 0.26 0.03 32.55 0.24 0.00 -39.87 -3.21 -0.00 0.01 -0.00 0.00 0.00 0.00 -11.53 -21.62 -4.42
3.75 -0.00 -17.37 0.00 0.00 0.00 0.00 86.86 0.00 -2.66 -2.75 11.09 0.00 2.52 -2.92 1.75 13.76 -1.26 0.00 10.88 2.19 1.66 13.76 -1.39 0.00 10.37 -4.28 2.40 3.07 -1.27 0.00 18.40 -1.78 2.40 3.07 -1.27 0.00 12.77 3.30 2.65 -15.71 -2.26 0.00 6.35 3.19 -4.67 -38.91 -7.09 0.00 19.88 4.10 -0.00 0.00 -0.00 3.40 7.01 8.59 0.00 0.01 -0.00 -3.30 6.99 8.69 0.00 -0.00 0.00 0.00 5.05 2.27 -0.00 -0.00 0.00 0.00 -8.86 6.08 -0.01 0.00 -0.00 0.10 -6.14 2.92 0.00 0.00 -0.00 0.10 -6.14 2.92 -0.00 0.00 -0.00 0.00 -0.13 -1.74 0.00 -0.00 -0.01 0.01 0.78 2.48 0.00 -0.00 -0.06 0.02 -0.48 2.15 -0.00 0.00 0.00 0.00 -0.18 0.48 -0.00 0.00 0.00 0.20 -0.10 -0.02 -0.00 0.00 0.00 -0.20 -0.10 -0.02 -0.00 -0.00 0.00 0.20 -0.10 -0.02 -0.00 -0.00 -0.00 -0.20 -0.10 -0.02 0.01 0.00 -0.00 0.20 -0.09 -0.02 0.00 0.00 -0.00 -0.20 -0.10 -0.02 0.00 -0.00 0.00 -0.20 -0.10 0.04 0.00 0.00 0.00 0.20 -0.09 0.03 -0.00 -0.00 0.00 -2.80 7.18 9.09 9.14 -0.50 -3.07 -16.06 -0.97 -5.10 -0.00 0.00 -0.00 -0.37 -4.12 -0.50 56.51 -23.37 -6.87 0.00 0.00 0.00 0.40 17.69 0.45 -25.58 -0.72 -0.67 4.86 -21.36 61.93 -24.78 -0.70 -0.65 -3.91 -72.59 -10.65 -1.98 -0.27 1.89 -0.21 72.64 8.72 -8.95 -0.46 2.32 -17.68 -7.17 1.13 -4.50 -0.02 0.02 1.73 -0.12 0.05 -2.60 -0.01 0.01 2.45 0.22 -0.02 -7.97 -0.33 -2.09 -1.99 -16.73 -17.98 -4.50 -0.02 0.02 12.76 -1.20 0.11 -3.00 -0.01 0.01 10.45 -0.94 0.06 -8.73 0.03 0.04 -10.91 -0.20 -9.38 -5.10 -0.02 0.02 4.40 0.01 0.00 -3.10 -0.01 0.01 8.82 0.00 0.00 -7.05 -1.12 -4.03 4.59 -23.51 -24.19 -3.40 -0.01 0.01 17.88 -3.99 0.61 -2.10 -0.01 0.01 7.04 -1.57 0.11 -1.03 -0.35 0.79 0.00 -0.00 0.00 -1.05 -2.14 1.66 -6.72 29.09 28.77 -4.19 -0.71 1.47 -2.98 -1.35 1.94 -3.79 -0.05 0.22 0.96 0.24 -0.58 2.80 7.18 9.09 -7.70 0.16 -1.16 14.84 0.13 -4.10 -0.00 0.00 0.00 16.06 -0.98 -5.09 0.00 0.01 -0.00 0.31 -4.18 -0.50 -64.09 -9.26 0.41 0.00 0.00 0.00 -0.67 29.58 -0.53 25.58 -0.59 -0.69 2.49 -28.21 -52.11 24.78 -0.57 -0.67 1.25 -51.09 6.49 2.06 0.07 1.82 6.68 50.88 -23.96 1.01 -0.38 0.79 -0.01 -0.00 0.00 0.99 -2.16 1.67 -1.70 38.60 -19.26 4.17 -0.82 1.49 -4.23 1.66 -1.14 3.79 -0.15 0.23 -2.13 0.53 1.29 8.93 -0.69 2.34 10.43 -3.85 -1.70 4.50 -0.14 0.03 -3.96 0.09 -0.09 2.60 -0.08 0.02 -1.61 0.15 0.01 8.73 -0.20 0.06 12.88 -0.25 8.48 5.10 -0.15 0.03 -2.00 0.02 0.01 3.10 -0.09 0.02 -6.77 0.00 0.00 7.97 -0.55 -2.06 8.52 -12.48 16.42 4.50 -0.14 0.03 -9.32 -0.85 -0.03 3.00 -0.09 0.02 -4.78 -0.43 -0.03 7.03 -1.33 -4.01 1.66 -19.54 25.23 3.40 -0.10 0.02 -13.94 -3.13 -0.37 2.10 -0.06 0.01 -7.64 -1.70 -0.12 0.00 -11.87 1.82 -0.01 -0.00 -0.00 -8.70 -7.18 -1.32 -5.87 -22.53 -6.89 0.00 -37.30 0.16 -0.02 28.31 -0.19 0.00 -39.87 -3.21 0.00 -0.00 -0.00 0.00 0.00 0.00 11.22 -5.88 0.21 8.70 -7.18 -1.32 5.97 -9.31 -4.61 0.00 -37.20 0.26 0.02 32.54 0.23 0.00 -39.87 -3.21 -0.00 0.01 -0.00 0.00 0.00 0.00 -10.84 -22.16 -4.49
